<svg width="18" height="13" viewBox="0 0 18 13" fill="none" xmlns="http://www.w3.org/2000/svg">
<path fill-rule="evenodd" clip-rule="evenodd" d="M8.97117 2.84599C11.4377 2.8461 13.81 3.81668 15.5976 5.55712C15.7322 5.69149 15.9474 5.68979 16.0799 5.55332L17.3667 4.2234C17.4338 4.15418 17.4713 4.06042 17.4707 3.96287C17.4701 3.86531 17.4316 3.77201 17.3637 3.7036C12.6718 -0.901199 5.26978 -0.901199 0.577866 3.7036C0.5099 3.77196 0.471338 3.86523 0.470711 3.96279C0.470084 4.06034 0.507445 4.15413 0.574527 4.2234L1.86167 5.55332C1.99416 5.69 2.20949 5.6917 2.34402 5.55712C4.13186 3.81656 6.50437 2.84598 8.97117 2.84599ZM8.97115 7.17266C10.3264 7.17257 11.6332 7.68843 12.6378 8.61999C12.7736 8.7522 12.9877 8.74933 13.1201 8.61353L14.4054 7.28361C14.4731 7.21386 14.5107 7.11922 14.5097 7.02089C14.5087 6.92255 14.4693 6.82872 14.4002 6.76039C11.3411 3.84629 6.60377 3.84629 3.54469 6.76039C3.47559 6.82872 3.43616 6.9226 3.43526 7.02097C3.43435 7.11933 3.47204 7.21396 3.53987 7.28361L4.82478 8.61353C4.95723 8.74933 5.17126 8.7522 5.30713 8.61999C6.31102 7.68905 7.61684 7.17323 8.97115 7.17266ZM11.5458 10.084C11.5478 10.1826 11.5099 10.2777 11.4412 10.3468L9.21789 12.6445C9.15272 12.712 9.06386 12.75 8.97115 12.75C8.87844 12.75 8.78958 12.712 8.72441 12.6445L6.50076 10.3468C6.43207 10.2776 6.39428 10.1825 6.39632 10.0839C6.39836 9.98529 6.44004 9.89191 6.51152 9.82581C7.93139 8.59595 10.0109 8.59595 11.4308 9.82581C11.5022 9.89196 11.5438 9.98537 11.5458 10.084Z" fill="black"/>
</svg>
