<svg width="48" height="48" viewBox="0 0 48 48" fill="none" xmlns="http://www.w3.org/2000/svg">
<rect width="48" height="48" rx="24" fill="#735CD8" fill-opacity="0.1"/>
<path d="M31.5 18.75H16.5C15.2574 18.75 14.25 19.7574 14.25 21V30C14.25 31.2426 15.2574 32.25 16.5 32.25H31.5C32.7426 32.25 33.75 31.2426 33.75 30V21C33.75 19.7574 32.7426 18.75 31.5 18.75Z" stroke="#735CD8" stroke-width="1.6" stroke-linejoin="round"/>
<path d="M31.2825 18.75V17.3437C31.2824 16.9988 31.2062 16.6582 31.0592 16.3461C30.9123 16.0341 30.6984 15.7583 30.4326 15.5385C30.1668 15.3187 29.8558 15.1602 29.5217 15.0744C29.1877 14.9886 28.8388 14.9776 28.5 15.0422L16.155 17.1492C15.6189 17.2514 15.1353 17.5374 14.7875 17.958C14.4397 18.3786 14.2496 18.9074 14.25 19.4531V21.75" stroke="#735CD8" stroke-width="1.6" stroke-linejoin="round"/>
<path d="M29.25 27C28.9533 27 28.6633 26.912 28.4166 26.7472C28.17 26.5824 27.9777 26.3481 27.8642 26.074C27.7506 25.7999 27.7209 25.4983 27.7788 25.2074C27.8367 24.9164 27.9796 24.6491 28.1893 24.4393C28.3991 24.2296 28.6664 24.0867 28.9574 24.0288C29.2483 23.9709 29.5499 24.0006 29.824 24.1142C30.0981 24.2277 30.3324 24.42 30.4972 24.6666C30.662 24.9133 30.75 25.2033 30.75 25.5C30.75 25.8978 30.592 26.2794 30.3107 26.5607C30.0294 26.842 29.6478 27 29.25 27Z" fill="#735CD8"/>
</svg>
