<svg width="24" height="24" viewBox="0 0 24 24" fill="none" xmlns="http://www.w3.org/2000/svg">
<path fill-rule="evenodd" clip-rule="evenodd" d="M12.713 3.45624C12.6501 3.32003 12.5496 3.20468 12.4232 3.12382C12.2969 3.04297 12.15 3 12 3C11.85 3 11.7031 3.04297 11.5768 3.12382C11.4504 3.20468 11.3499 3.32003 11.287 3.45624L9.03344 8.34031L3.69315 8.97399C3.54415 8.99158 3.40331 9.05149 3.2873 9.14662C3.17129 9.24176 3.08497 9.36814 3.03854 9.5108C2.99211 9.65347 2.98753 9.80645 3.02534 9.95164C3.06314 10.0968 3.14175 10.2282 3.25185 10.3301L7.20151 13.9813L6.15324 19.258C6.12413 19.4051 6.13774 19.5575 6.19246 19.6971C6.24719 19.8367 6.34074 19.9577 6.46206 20.0458C6.58338 20.1339 6.7274 20.1855 6.87708 20.1943C7.02676 20.2032 7.17586 20.169 7.30673 20.0959L12 17.4685L16.6933 20.0959C16.8242 20.1693 16.9735 20.2037 17.1234 20.195C17.2733 20.1862 17.4176 20.1346 17.5391 20.0464C17.6606 19.9581 17.7542 19.8368 17.8089 19.697C17.8635 19.5571 17.877 19.4045 17.8475 19.2572L16.7993 13.9821L20.7481 10.3301C20.8583 10.2282 20.9369 10.0968 20.9747 9.95164C21.0125 9.80645 21.0079 9.65347 20.9615 9.5108C20.915 9.36814 20.8287 9.24176 20.7127 9.14662C20.5967 9.05149 20.4558 8.99158 20.3069 8.97399L14.9658 8.33953L12.713 3.45624Z" fill="#FFA800"/>
</svg>
