<svg width="20" height="13" viewBox="0 0 20 13" fill="none" xmlns="http://www.w3.org/2000/svg">
<path fill-rule="evenodd" clip-rule="evenodd" d="M18.8039 0.499939H17.6373C16.9929 0.499939 16.4706 1.00362 16.4706 1.62494V11.3749C16.4706 11.9963 16.9929 12.4999 17.6373 12.4999H18.8039C19.4482 12.4999 19.9706 11.9963 19.9706 11.3749V1.62494C19.9706 1.00362 19.4482 0.499939 18.8039 0.499939ZM12.1471 3.12507H13.3137C13.9581 3.12507 14.4804 3.62875 14.4804 4.25007V11.3751C14.4804 11.9964 13.9581 12.5001 13.3137 12.5001H12.1471C11.5027 12.5001 10.9804 11.9964 10.9804 11.3751V4.25007C10.9804 3.62875 11.5027 3.12507 12.1471 3.12507ZM7.82353 5.74986H6.65686C6.01253 5.74986 5.4902 6.25354 5.4902 6.87486V11.3749C5.4902 11.9962 6.01253 12.4999 6.65686 12.4999H7.82353C8.46786 12.4999 8.9902 11.9962 8.9902 11.3749V6.87486C8.9902 6.25354 8.46786 5.74986 7.82353 5.74986ZM2.33333 7.99982H1.16667C0.522334 7.99982 0 8.5035 0 9.12482V11.3748C0 11.9961 0.522334 12.4998 1.16667 12.4998H2.33333C2.97767 12.4998 3.5 11.9961 3.5 11.3748V9.12482C3.5 8.5035 2.97767 7.99982 2.33333 7.99982Z" fill="black"/>
</svg>
