<svg width="32" height="14" viewBox="0 0 32 14" fill="none" xmlns="http://www.w3.org/2000/svg">
<path d="M4.5166 0.723145C5.15853 0.723145 5.76725 0.842122 6.34277 1.08008C6.91829 1.3125 7.42741 1.67773 7.87012 2.17578C8.31836 2.66829 8.66976 3.30192 8.92432 4.07666C9.17887 4.84587 9.30615 5.77279 9.30615 6.85742V6.87402C9.30615 8.21875 9.11247 9.36979 8.7251 10.3271C8.33773 11.2845 7.78158 12.0205 7.05664 12.5352C6.33724 13.0443 5.47673 13.2988 4.4751 13.2988C3.7391 13.2988 3.07503 13.166 2.48291 12.9004C1.89632 12.6292 1.40934 12.2585 1.02197 11.7881C0.640137 11.3122 0.382812 10.7699 0.25 10.1611L0.233398 10.0698H2.3335L2.3667 10.1528C2.47184 10.4295 2.62126 10.673 2.81494 10.8833C3.01416 11.0936 3.25212 11.2568 3.52881 11.373C3.81104 11.4837 4.12646 11.5391 4.4751 11.5391C5.10596 11.5391 5.62061 11.3537 6.01904 10.9829C6.42301 10.6066 6.72461 10.1058 6.92383 9.48047C7.12858 8.84961 7.24479 8.15234 7.27246 7.38867C7.27799 7.30566 7.28076 7.22542 7.28076 7.14795C7.28076 7.06494 7.28076 6.9847 7.28076 6.90723L6.90723 4.90674C6.90723 4.45296 6.80208 4.04069 6.5918 3.66992C6.38151 3.29915 6.09652 3.00586 5.73682 2.79004C5.38265 2.57422 4.98145 2.46631 4.5332 2.46631C4.10156 2.46631 3.70589 2.57145 3.34619 2.78174C2.98649 2.99202 2.69873 3.27979 2.48291 3.64502C2.26709 4.00472 2.15918 4.40869 2.15918 4.85693V4.87354C2.15918 5.33838 2.26156 5.75065 2.46631 6.11035C2.67106 6.46452 2.95052 6.74398 3.30469 6.94873C3.65885 7.15348 4.06283 7.25586 4.5166 7.25586C4.97038 7.25586 5.37712 7.15625 5.73682 6.95703C6.09652 6.75781 6.38151 6.48112 6.5918 6.12695C6.80208 5.77279 6.90723 5.37158 6.90723 4.92334V4.90674H7.40527V7.11475H7.11475C6.97087 7.43018 6.75781 7.72347 6.47559 7.99463C6.19336 8.26579 5.84473 8.48438 5.42969 8.65039C5.02018 8.81641 4.53874 8.89941 3.98535 8.89941C3.22168 8.89941 2.54655 8.72786 1.95996 8.38477C1.37337 8.04167 0.911296 7.57129 0.57373 6.97363C0.241699 6.37598 0.0756836 5.70085 0.0756836 4.94824V4.93164C0.0756836 4.11816 0.263835 3.396 0.640137 2.76514C1.02197 2.12874 1.54769 1.6307 2.21729 1.271C2.89242 0.905762 3.65885 0.723145 4.5166 0.723145ZM12.5747 11.3896C12.1984 11.3896 11.883 11.2651 11.6284 11.0161C11.3794 10.7616 11.2549 10.4517 11.2549 10.0864C11.2549 9.71566 11.3794 9.40576 11.6284 9.15674C11.883 8.90218 12.1984 8.7749 12.5747 8.7749C12.9565 8.7749 13.272 8.90218 13.521 9.15674C13.77 9.40576 13.8945 9.71566 13.8945 10.0864C13.8945 10.4517 13.77 10.7616 13.521 11.0161C13.272 11.2651 12.9565 11.3896 12.5747 11.3896ZM12.5747 5.23047C12.1984 5.23047 11.883 5.10596 11.6284 4.85693C11.3794 4.60238 11.2549 4.29248 11.2549 3.92725C11.2549 3.55648 11.3794 3.24658 11.6284 2.99756C11.883 2.743 12.1984 2.61572 12.5747 2.61572C12.9565 2.61572 13.272 2.743 13.521 2.99756C13.77 3.24658 13.8945 3.55648 13.8945 3.92725C13.8945 4.29248 13.77 4.60238 13.521 4.85693C13.272 5.10596 12.9565 5.23047 12.5747 5.23047ZM21.6538 13V10.7007H15.7935V8.94922C16.1089 8.41243 16.4243 7.87288 16.7397 7.33057C17.0607 6.78825 17.3844 6.2487 17.7109 5.71191C18.043 5.1696 18.3722 4.63558 18.6987 4.10986C19.0308 3.57861 19.36 3.05566 19.6865 2.54102C20.0186 2.02083 20.3506 1.51449 20.6826 1.02197H23.6958V8.93262H25.3145V10.7007H23.6958V13H21.6538ZM17.7856 8.98242H21.687V2.73193H21.5625C21.319 3.10824 21.0672 3.49561 20.8071 3.89404C20.5526 4.29248 20.2952 4.69922 20.0352 5.11426C19.7751 5.5293 19.5177 5.9471 19.2632 6.36768C19.0086 6.78271 18.7568 7.20052 18.5078 7.62109C18.2588 8.03613 18.0181 8.4484 17.7856 8.85791V8.98242ZM29.77 13V3.13037H29.6206L26.6406 5.23047V3.22168L29.77 1.02197H31.9033V13H29.77Z" fill="black"/>
</svg>
