<svg width="18" height="18" viewBox="0 0 18 18" fill="none" xmlns="http://www.w3.org/2000/svg">
<path fill-rule="evenodd" clip-rule="evenodd" d="M9.71298 0.456237C9.65013 0.32003 9.54958 0.204675 9.42323 0.123822C9.29688 0.0429687 9.15001 0 9 0C8.84999 0 8.70312 0.0429687 8.57677 0.123822C8.45042 0.204675 8.34987 0.32003 8.28702 0.456237L6.03344 5.34031L0.693147 5.97399C0.544151 5.99158 0.403315 6.05149 0.287305 6.14662C0.171294 6.24176 0.0849678 6.36814 0.0385413 6.5108C-0.00788522 6.65347 -0.012468 6.80645 0.0253353 6.95164C0.0631386 7.09683 0.141745 7.22815 0.251853 7.33006L4.20151 10.9813L3.15324 16.258C3.12413 16.4051 3.13774 16.5575 3.19246 16.6971C3.24719 16.8367 3.34074 16.9577 3.46206 17.0458C3.58338 17.1339 3.7274 17.1855 3.87708 17.1943C4.02676 17.2032 4.17586 17.169 4.30673 17.0959L9 14.4685L13.6933 17.0959C13.8242 17.1693 13.9735 17.2037 14.1234 17.195C14.2733 17.1862 14.4176 17.1346 14.5391 17.0464C14.6606 16.9581 14.7542 16.8368 14.8089 16.697C14.8635 16.5571 14.877 16.4045 14.8475 16.2572L13.7993 10.9821L17.7481 7.33006C17.8583 7.22815 17.9369 7.09683 17.9747 6.95164C18.0125 6.80645 18.0079 6.65347 17.9615 6.5108C17.915 6.36814 17.8287 6.24176 17.7127 6.14662C17.5967 6.05149 17.4558 5.99158 17.3069 5.97399L11.9658 5.33953L9.71298 0.456237Z" fill="#FFA800"/>
</svg>
